<?xml version="1.0" standalone="no"?>
<!DOCTYPE svg PUBLIC "-//W3C//DTD SVG 20010904//EN"
 "http://www.w3.org/TR/2001/REC-SVG-20010904/DTD/svg10.dtd">
<svg version="1.0" xmlns="http://www.w3.org/2000/svg"
 width="1019.000000pt" height="356.000000pt" viewBox="0 0 1019.000000 356.000000"
 preserveAspectRatio="xMidYMid meet">
<metadata>
Created by potrace 1.16, written by Peter Selinger 2001-2019
</metadata>
<g transform="translate(0.000000,356.000000) scale(0.100000,-0.100000)"
fill="#3f3fea">
<path d="M5210 1910 l0 -1010 205 0 205 0 0 1010 0 1010 -205 0 -205 0 0
-1010z" stroke=" #575757" stroke-width="3px"/>
<path d="M7500 2427 l0 -492 -64 61 c-86 83 -165 115 -296 121 -294 15 -525
-165 -586 -457 -21 -99 -14 -288 14 -381 58 -195 200 -334 393 -384 81 -22
250 -16 324 11 60 21 131 70 180 121 l34 38 1 -82 0 -83 205 0 205 0 0 1010 0
1010 -205 0 -205 0 0 -493z m-183 -657 c66 -23 120 -71 154 -138 19 -39 24
-62 23 -132 0 -98 -14 -138 -70 -200 -134 -148 -354 -108 -437 79 -14 32 -20
67 -20 123 0 102 34 174 107 229 82 62 148 73 243 39z" stroke=" #575757" stroke-width="3px"/>
<path d="M4155 2744 c-11 -2 -45 -9 -75 -15 -30 -6 -91 -28 -135 -48 -200 -94
-295 -236 -295 -439 1 -164 37 -251 149 -362 92 -90 175 -139 383 -224 235
-96 273 -120 303 -186 22 -48 16 -120 -12 -159 -39 -52 -79 -66 -183 -66 -87
0 -101 3 -162 33 -75 37 -175 135 -229 226 -19 31 -37 56 -42 56 -5 0 -74 -46
-154 -102 -81 -57 -151 -106 -156 -109 -13 -9 56 -141 109 -209 105 -134 270
-235 447 -275 80 -18 283 -21 367 -5 273 51 444 195 489 408 6 29 11 95 11
145 0 151 -37 257 -125 354 -89 100 -177 151 -410 239 -188 70 -254 104 -294
150 -30 33 -33 42 -28 81 9 79 74 123 180 124 35 0 82 -5 103 -11 56 -17 129
-73 167 -127 18 -25 37 -52 42 -60 8 -11 41 4 178 83 92 53 167 101 167 108 0
26 -79 143 -135 200 -73 74 -163 128 -270 162 -68 22 -102 27 -225 30 -80 1
-154 1 -165 -2z" stroke=" #575757" stroke-width="3px"/>
<path d="M6050 2739 c-98 -19 -170 -106 -170 -206 0 -96 39 -159 125 -199 55
-26 125 -31 188 -13 46 13 109 67 131 113 22 46 20 141 -3 192 -40 89 -154
136 -271 113z" stroke=" #575757" stroke-width="3px"/>
<path d="M10 2505 l0 -205 245 0 245 0 0 -700 0 -700 230 0 230 0 0 700 0 700
245 0 245 0 0 205 0 205 -720 0 -720 0 0 -205z" stroke=" #575757" stroke-width="3px"/>
<path d="M1820 2114 c-178 -34 -282 -85 -386 -188 -119 -118 -167 -242 -167
-426 0 -181 45 -300 164 -424 127 -135 288 -196 514 -196 148 0 256 24 365 80
216 113 339 345 314 595 -15 161 -63 266 -168 371 -132 130 -268 183 -486 189
-69 2 -136 1 -150 -1z m249 -362 c48 -29 83 -67 109 -117 22 -41 26 -64 27
-125 0 -99 -17 -152 -68 -207 -71 -77 -167 -103 -276 -73 -58 15 -135 87 -158
148 -21 56 -24 167 -5 230 24 79 114 155 203 170 52 9 131 -3 168 -26z" stroke=" #575757" stroke-width="3px"/>
<path d="M8640 2110 c-132 -23 -259 -89 -350 -181 -105 -106 -160 -253 -160
-425 0 -121 13 -181 62 -283 69 -145 201 -256 373 -313 62 -21 88 -23 240 -23
153 1 176 3 235 24 71 26 146 71 203 121 35 31 127 158 127 177 0 8 -303 113
-327 113 -5 0 -22 -17 -36 -39 -71 -107 -259 -123 -390 -32 -44 30 -87 88
-102 139 l-6 22 440 0 441 0 0 103 c0 186 -45 308 -158 428 -111 118 -267 180
-451 178 -53 -1 -116 -5 -141 -9z m266 -318 c22 -11 46 -28 55 -38 20 -22 49
-79 49 -94 0 -7 -81 -10 -245 -10 -191 0 -245 3 -245 13 0 23 49 85 85 107 20
13 55 29 78 36 57 19 173 12 223 -14z" stroke=" #575757" stroke-width="3px"/>
<path d="M5910 1500 l0 -600 200 0 200 0 0 600 0 600 -200 0 -200 0 0 -600z" stroke=" #575757" stroke-width="3px"/>
<path d="M9690 1318 c-100 -28 -170 -123 -170 -233 0 -149 119 -256 270 -242
93 8 163 55 206 137 27 51 25 162 -3 216 -55 104 -184 156 -303 122z" stroke=" #575757" stroke-width="3px"/>
</g>
</svg>
